<svg width="142" height="142" viewBox="0 0 142 142" fill="none" xmlns="http://www.w3.org/2000/svg">
<rect width="142" height="142" rx="50" fill="#0077FF"/>
<path fill-rule="evenodd" clip-rule="evenodd" d="M40 0C17.9086 0 0 17.9086 0 40V46L71 105L142 46V40C142 17.9086 124.091 0 102 0H40Z" fill="#FF22A6"/>
<path d="M127 65.39C127.015 61.4358 125.99 57.5477 124.026 54.1193C122.062 50.691 119.23 47.8441 115.818 45.867C115.902 44.8965 115.902 43.9204 115.818 42.9498C115.818 38.4862 114.05 34.2054 110.905 31.0491C107.759 27.8929 103.493 26.1197 99.0442 26.1197H98.0378C97.1067 23.5296 95.5565 21.2083 93.5232 19.3593C91.4898 17.5103 89.0354 16.1901 86.3752 15.5145C83.7149 14.8389 80.9301 14.8285 78.2649 15.4842C75.5998 16.1399 73.1356 17.4417 71.0886 19.2755C69.0416 17.4417 66.5774 16.1399 63.9122 15.4842C61.2471 14.8285 58.4622 14.8389 55.802 15.5145C53.1418 16.1901 50.6873 17.5103 48.654 19.3593C46.6206 21.2083 45.0705 23.5296 44.1394 26.1197H43.133C38.6844 26.1197 34.418 27.8929 31.2724 31.0491C28.1268 34.2054 26.3596 38.4862 26.3596 42.9498C26.2755 43.9204 26.2755 44.8965 26.3596 45.867C23.1864 47.6667 20.4997 50.2173 18.5334 53.2968C16.567 56.3763 15.3806 59.8914 15.0775 63.5361C14.7743 67.1807 15.3636 70.8445 16.794 74.2085C18.2244 77.5724 20.4525 80.5346 23.2845 82.8372C21.4521 86.2664 20.5399 90.1147 20.6373 94.0045C20.7348 97.8943 21.8386 101.692 23.8404 105.024C25.8422 108.357 28.6731 111.11 32.0555 113.013C35.4378 114.916 39.2552 115.904 43.133 115.88H44.1394C45.0705 118.47 46.6206 120.792 48.654 122.641C50.6873 124.49 53.1418 125.81 55.802 126.485C58.4622 127.161 61.2471 127.172 63.9122 126.516C66.5774 125.86 69.0416 124.558 71.0886 122.725C73.1356 124.558 75.5998 125.86 78.2649 126.516C80.9301 127.172 83.7149 127.161 86.3752 126.485C89.0354 125.81 91.4898 124.49 93.5232 122.641C95.5565 120.792 97.1067 118.47 98.0378 115.88H99.0442C102.898 115.856 106.681 114.832 110.025 112.909C113.368 110.986 116.16 108.229 118.129 104.904C120.098 101.579 121.177 97.8007 121.262 93.9344C121.347 90.0681 120.434 86.2454 118.613 82.8372C121.221 80.7422 123.328 78.0875 124.779 75.0683C126.231 72.0491 126.989 68.742 127 65.39ZM65.4975 51.6454C64.2797 50.9465 63.0084 50.3462 61.6955 49.8502C60.2868 49.374 58.7473 49.4789 57.4156 50.1417C56.084 50.8046 55.0693 51.971 54.5948 53.3845C54.1203 54.798 54.2248 56.3427 54.8854 57.6788C55.546 59.015 56.7085 60.0331 58.1172 60.5092C60.2694 61.2899 62.1311 62.7145 63.4509 64.5905C64.7707 66.4665 65.485 68.7037 65.4975 71V79.6955C64.2797 78.9967 63.0084 78.3964 61.6955 77.9003C60.2868 77.4242 58.7473 77.5291 57.4156 78.1919C56.084 78.8547 55.0693 80.0212 54.5948 81.4347C54.1203 82.8481 54.2248 84.3929 54.8854 85.729C55.546 87.0652 56.7085 88.0833 58.1172 88.5594C60.2694 89.3401 62.1311 90.7647 63.4509 92.6407C64.7707 94.5167 65.485 96.7539 65.4975 99.0502V110.27C65.4975 111.758 64.9084 113.185 63.8599 114.237C62.8113 115.289 61.3892 115.88 59.9064 115.88C58.8247 115.873 57.7682 115.551 56.8651 114.954C55.9621 114.357 55.2511 113.509 54.8184 112.514C55.7559 111.962 56.6528 111.344 57.5022 110.663C58.0675 110.191 58.5348 109.613 58.8773 108.96C59.2198 108.307 59.4308 107.593 59.4983 106.859C59.5658 106.124 59.4884 105.384 59.2707 104.679C59.0529 103.975 58.6989 103.32 58.229 102.753C57.7591 102.186 57.1824 101.717 56.5319 101.373C55.8814 101.029 55.1699 100.818 54.4378 100.75C53.7058 100.682 52.9676 100.76 52.2654 100.978C51.5633 101.197 50.9109 101.552 50.3455 102.023C48.3267 103.729 45.7719 104.663 43.133 104.66C40.1673 104.66 37.323 103.478 35.2259 101.374C33.1289 99.2698 31.9507 96.4159 31.9507 93.4401C31.9775 91.3285 32.5976 89.2673 33.7399 87.4935C34.9947 87.7193 36.2671 87.832 37.5419 87.8301C39.0247 87.8301 40.4468 87.239 41.4954 86.187C42.5439 85.1349 43.133 83.7079 43.133 82.2201C43.133 80.7322 42.5439 79.3053 41.4954 78.2532C40.4468 77.2011 39.0247 76.61 37.5419 76.61C36.2212 76.6177 34.9114 76.37 33.684 75.8807C31.6731 75.153 29.9122 73.8623 28.61 72.1613C27.3077 70.4604 26.5187 68.4205 26.3363 66.2835C26.1539 64.1464 26.5858 62.0016 27.5809 60.1033C28.5759 58.2049 30.0924 56.6326 31.9507 55.5724C32.7452 56.3058 33.6063 56.9632 34.5227 57.5359C35.8127 58.2799 37.3445 58.4791 38.781 58.0898C40.2175 57.7006 41.4411 56.7546 42.1825 55.4602C42.9239 54.1657 43.1225 52.6288 42.7345 51.1874C42.3466 49.7461 41.4039 48.5184 40.1138 47.7745C39.3267 47.3388 38.6703 46.6995 38.2128 45.9231C37.6959 45.0224 37.462 43.9861 37.5419 42.9498C37.5419 41.4619 38.1309 40.035 39.1795 38.9829C40.228 37.9308 41.6501 37.3398 43.133 37.3398C43.5225 37.2853 43.9176 37.2853 44.3071 37.3398C44.6031 38.2412 44.958 39.122 45.3694 39.9765C45.7347 40.6193 46.2231 41.1833 46.8065 41.636C47.3899 42.0886 48.0568 42.421 48.7688 42.6139C49.4808 42.8068 50.2238 42.8565 50.955 42.7601C51.6862 42.6637 52.3911 42.4231 53.0293 42.0522C54.2689 41.3039 55.1711 40.1026 55.5464 38.7007C55.9218 37.2989 55.741 35.8057 55.0421 34.5348C54.5729 33.6742 54.3232 32.7106 54.3152 31.7297C54.3152 30.2419 54.9043 28.8149 55.9528 27.7629C57.0014 26.7108 58.4235 26.1197 59.9064 26.1197C61.3892 26.1197 62.8113 26.7108 63.8599 27.7629C64.9084 28.8149 65.4975 30.2419 65.4975 31.7297V51.6454ZM108.493 75.8807C107.266 76.37 105.956 76.6177 104.635 76.61C103.152 76.61 101.73 77.2011 100.682 78.2532C99.6333 79.3053 99.0442 80.7322 99.0442 82.2201C99.0442 83.7079 99.6333 85.1349 100.682 86.187C101.73 87.239 103.152 87.8301 104.635 87.8301C105.91 87.832 107.183 87.7193 108.437 87.4935C109.58 89.2673 110.2 91.3285 110.226 93.4401C110.226 96.4159 109.048 99.2698 106.951 101.374C104.854 103.478 102.01 104.66 99.0442 104.66C96.4053 104.663 93.8505 103.729 91.8317 102.023C90.6899 101.071 89.2178 100.613 87.7394 100.75C86.2609 100.887 84.8972 101.607 83.9482 102.753C82.9991 103.898 82.5426 105.375 82.6789 106.859C82.8152 108.342 83.5332 109.711 84.675 110.663C85.5244 111.344 86.4213 111.962 87.3588 112.514C86.9261 113.509 86.2151 114.357 85.312 114.954C84.409 115.551 83.3525 115.873 82.2708 115.88C80.788 115.88 79.3659 115.289 78.3173 114.237C77.2688 113.185 76.6797 111.758 76.6797 110.27V99.0502C76.6921 96.7539 77.4065 94.5167 78.7263 92.6407C80.046 90.7647 81.9077 89.3401 84.06 88.5594C85.4687 88.0833 86.6312 87.0652 87.2918 85.729C87.9524 84.3929 88.0569 82.8481 87.5824 81.4347C87.1079 80.0212 86.0932 78.8547 84.7616 78.1919C83.4299 77.5291 81.8904 77.4242 80.4817 77.9003C79.1688 78.3964 77.8975 78.9967 76.6797 79.6955V71C76.6921 68.7037 77.4065 66.4665 78.7263 64.5905C80.046 62.7145 81.9077 61.2899 84.06 60.5092C84.7575 60.2735 85.4019 59.9022 85.9565 59.4165C86.511 58.9309 86.9647 58.3404 87.2918 57.6788C87.6189 57.0172 87.8129 56.2975 87.8628 55.5607C87.9126 54.8238 87.8174 54.0844 87.5824 53.3845C87.3475 52.6846 86.9774 52.038 86.4934 51.4816C86.0094 50.9252 85.4209 50.4699 84.7616 50.1417C84.1022 49.8136 83.3849 49.6189 82.6505 49.5689C81.9162 49.5188 81.1792 49.6144 80.4817 49.8502C79.1688 50.3462 77.8975 50.9465 76.6797 51.6454V31.7297C76.6797 30.2419 77.2688 28.8149 78.3173 27.7629C79.3659 26.7108 80.788 26.1197 82.2708 26.1197C83.7537 26.1197 85.1758 26.7108 86.2244 27.7629C87.2729 28.8149 87.862 30.2419 87.862 31.7297C87.8539 32.7106 87.6043 33.6742 87.1351 34.5348C86.7631 35.1717 86.5201 35.8761 86.4199 36.6075C86.3198 37.3388 86.3645 38.0829 86.5515 38.7969C86.7385 39.5109 87.0641 40.1809 87.5096 40.7684C87.9552 41.3559 88.5119 41.8493 89.1479 42.2205C89.7861 42.5914 90.491 42.832 91.2222 42.9284C91.9534 43.0248 92.6964 42.9751 93.4084 42.7822C94.1203 42.5893 94.7873 42.2569 95.3707 41.8043C95.9541 41.3516 96.4425 40.7876 96.8078 40.1448C97.2263 39.2356 97.5812 38.2984 97.8701 37.3398C98.2596 37.2853 98.6547 37.2853 99.0442 37.3398C100.527 37.3398 101.949 37.9308 102.998 38.9829C104.046 40.035 104.635 41.4619 104.635 42.9498C104.627 44.0496 104.296 45.1225 103.685 46.0353C103.228 46.7633 102.592 47.362 101.84 47.7745C100.55 48.5184 99.607 49.7461 99.219 51.1874C98.831 52.6288 99.0296 54.1657 99.7711 55.4602C100.512 56.7546 101.736 57.7006 103.173 58.0898C104.609 58.4791 106.141 58.2799 107.431 57.5359C108.435 56.9912 109.373 56.3324 110.226 55.5724C112.091 56.6138 113.62 58.1689 114.632 60.0539C115.644 61.9389 116.098 64.0752 115.939 66.2106C115.78 68.3459 115.016 70.3911 113.736 72.1046C112.457 73.8181 110.715 75.1284 108.717 75.8807H108.493Z" fill="white"/>
</svg>
