<svg width="142" height="142" viewBox="0 0 142 142" fill="none" xmlns="http://www.w3.org/2000/svg">
<rect width="142" height="142" rx="10" fill="#0077FF"/>
<path fill-rule="evenodd" clip-rule="evenodd" d="M10 0C4.47754 0 0 4.47705 0 10V46L71 105L142 46V10C142 4.47705 137.522 0 132 0H10Z" fill="#FF22A6"/>
<path d="M117 65.9418C117.013 62.7291 116.179 59.57 114.583 56.7844C112.988 53.9989 110.687 51.6858 107.914 50.0795C107.983 49.2909 107.983 48.4978 107.914 47.7092C107.914 44.0825 106.478 40.6044 103.923 38.0399C101.367 35.4755 97.9004 34.0348 94.2859 34.0348H93.4682C92.7117 31.9303 91.4522 30.0443 89.8001 28.5419C88.148 27.0396 86.1538 25.967 83.9923 25.418C81.8309 24.8691 79.5682 24.8607 77.4028 25.3934C75.2373 25.9262 73.2352 26.9839 71.572 28.4738C69.9088 26.9839 67.9067 25.9262 65.7412 25.3934C63.5757 24.8607 61.3131 24.8691 59.1516 25.418C56.9902 25.967 54.996 27.0396 53.3439 28.5419C51.6918 30.0443 50.4322 31.9303 49.6757 34.0348H48.858C45.2436 34.0348 41.7772 35.4755 39.2213 38.0399C36.6655 40.6044 35.2297 44.0825 35.2297 47.7092C35.1613 48.4978 35.1613 49.2909 35.2297 50.0795C32.6515 51.5417 30.4685 53.6141 28.8709 56.1162C27.2732 58.6183 26.3093 61.4743 26.063 64.4356C25.8166 67.3969 26.2954 70.3737 27.4576 73.1069C28.6198 75.8401 30.4302 78.2469 32.7312 80.1177C31.2423 82.9039 30.5012 86.0307 30.5803 89.1912C30.6595 92.3516 31.5564 95.4371 33.1828 98.1447C34.8093 100.852 37.1094 103.089 39.8576 104.636C42.6057 106.182 45.7073 106.985 48.858 106.965H49.6757C50.4322 109.07 51.6918 110.956 53.3439 112.458C54.996 113.96 56.9902 115.033 59.1516 115.582C61.3131 116.131 63.5757 116.139 65.7412 115.607C67.9067 115.074 69.9088 114.016 71.572 112.526C73.2352 114.016 75.2373 115.074 77.4028 115.607C79.5682 116.139 81.8309 116.131 83.9923 115.582C86.1538 115.033 88.148 113.96 89.8001 112.458C91.4522 110.956 92.7117 109.07 93.4682 106.965H94.2859C97.4174 106.945 100.491 106.114 103.207 104.551C105.924 102.989 108.193 100.748 109.792 98.047C111.392 95.3458 112.269 92.2756 112.338 89.1342C112.407 85.9928 111.665 82.8869 110.186 80.1177C112.305 78.4155 114.017 76.2586 115.196 73.8055C116.375 71.3524 116.991 68.6654 117 65.9418ZM67.0292 54.7744C66.0398 54.2066 65.0068 53.7188 63.9401 53.3158C62.7955 52.9289 61.5447 53.0141 60.4627 53.5527C59.3807 54.0912 58.5563 55.0389 58.1708 56.1874C57.7852 57.3358 57.8701 58.5909 58.4069 59.6766C58.9436 60.7622 59.8881 61.5894 61.0327 61.9762C62.7814 62.6106 64.2941 63.768 65.3664 65.2923C66.4387 66.8166 67.0191 68.6343 67.0292 70.5V77.5651C66.0398 76.9973 65.0068 76.5096 63.9401 76.1065C62.7955 75.7197 61.5447 75.8049 60.4627 76.3434C59.3807 76.882 58.5563 77.8297 58.1708 78.9782C57.7852 80.1266 57.8701 81.3817 58.4069 82.4673C58.9436 83.5529 59.8881 84.3802 61.0327 84.767C62.7814 85.4014 64.2941 86.5588 65.3664 88.0831C66.4387 89.6073 67.0191 91.425 67.0292 93.2908V102.407C67.0292 103.616 66.5506 104.775 65.6986 105.63C64.8467 106.485 63.6912 106.965 62.4864 106.965C61.6075 106.959 60.7492 106.698 60.0154 106.213C59.2817 105.727 58.704 105.039 58.3525 104.23C59.1142 103.782 59.8429 103.279 60.533 102.726C60.9924 102.343 61.372 101.873 61.6503 101.343C61.9286 100.812 62.1 100.232 62.1549 99.6354C62.2097 99.0386 62.1469 98.4368 61.9699 97.8643C61.793 97.2919 61.5054 96.7601 61.1236 96.2991C60.7418 95.8382 60.2732 95.4573 59.7447 95.1781C59.2162 94.8989 58.638 94.7268 58.0432 94.6718C57.4484 94.6168 56.8487 94.6798 56.2782 94.8574C55.7077 95.0349 55.1776 95.3235 54.7182 95.7066C53.078 97.0922 51.0022 97.851 48.858 97.8489C46.4484 97.8489 44.1375 96.8885 42.4336 95.1788C40.7297 93.4692 39.7725 91.1504 39.7725 88.7326C39.7942 87.0169 40.2981 85.3422 41.2262 83.901C42.2457 84.0844 43.2795 84.176 44.3153 84.1745C45.5201 84.1745 46.6756 83.6942 47.5275 82.8394C48.3794 81.9846 48.858 80.8252 48.858 79.6163C48.858 78.4074 48.3794 77.248 47.5275 76.3932C46.6756 75.5384 45.5201 75.0581 44.3153 75.0581C43.2422 75.0643 42.178 74.8632 41.1807 74.4656C39.5469 73.8743 38.1162 72.8256 37.0581 71.4436C36 70.0615 35.3589 68.4042 35.2107 66.6678C35.0625 64.9314 35.4135 63.1888 36.222 61.6464C37.0304 60.104 38.2626 58.8264 39.7725 57.9651C40.418 58.561 41.1176 59.0951 41.8622 59.5604C42.9103 60.1649 44.1549 60.3268 45.3221 60.0105C46.4892 59.6942 47.4834 58.9256 48.0858 57.8739C48.6882 56.8222 48.8495 55.5734 48.5343 54.4023C48.2191 53.2312 47.4531 52.2337 46.4049 51.6292C45.7654 51.2753 45.2321 50.7559 44.8604 50.1251C44.4404 49.3932 44.2504 48.5512 44.3153 47.7092C44.3153 46.5003 44.7939 45.3409 45.6458 44.4861C46.4977 43.6313 47.6532 43.1511 48.858 43.1511C49.1745 43.1068 49.4956 43.1068 49.812 43.1511C50.0525 43.8834 50.3409 44.5991 50.6752 45.2934C50.9719 45.8157 51.3688 46.2739 51.8428 46.6417C52.3168 47.0095 52.8587 47.2795 53.4372 47.4363C54.0156 47.5931 54.6193 47.6334 55.2134 47.5551C55.8075 47.4768 56.3803 47.2813 56.8988 46.9799C57.9059 46.3719 58.639 45.3958 58.944 44.2569C59.249 43.1179 59.1021 41.9046 58.5342 40.872C58.153 40.1728 57.9501 39.3899 57.9436 38.5929C57.9436 37.384 58.4222 36.2246 59.2742 35.3698C60.1261 34.515 61.2816 34.0348 62.4864 34.0348C63.6912 34.0348 64.8467 34.515 65.6986 35.3698C66.5506 36.2246 67.0292 37.384 67.0292 38.5929V54.7744ZM101.963 74.4656C100.966 74.8632 99.9018 75.0643 98.8287 75.0581C97.6239 75.0581 96.4684 75.5384 95.6165 76.3932C94.7645 77.248 94.2859 78.4074 94.2859 79.6163C94.2859 80.8252 94.7645 81.9846 95.6165 82.8394C96.4684 83.6942 97.6239 84.1745 98.8287 84.1745C99.8645 84.176 100.898 84.0844 101.918 83.901C102.846 85.3422 103.35 87.0169 103.371 88.7326C103.371 91.1504 102.414 93.4692 100.71 95.1788C99.0065 96.8885 96.6956 97.8489 94.2859 97.8489C92.1418 97.851 90.066 97.0922 88.4257 95.7066C87.498 94.9329 86.302 94.5607 85.1008 94.6718C83.8995 94.7829 82.7915 95.3683 82.0204 96.2991C81.2493 97.23 80.8783 98.4301 80.9891 99.6354C81.0998 100.841 81.6832 101.952 82.611 102.726C83.3011 103.279 84.0298 103.782 84.7915 104.23C84.44 105.039 83.8623 105.727 83.1285 106.213C82.3948 106.698 81.5364 106.959 80.6576 106.965C79.4527 106.965 78.2973 106.485 77.4453 105.63C76.5934 104.775 76.1148 103.616 76.1148 102.407V93.2908C76.1249 91.425 76.7053 89.6073 77.7776 88.0831C78.8499 86.5588 80.3625 85.4014 82.1113 84.767C83.2558 84.3802 84.2004 83.5529 84.7371 82.4673C85.2738 81.3817 85.3588 80.1266 84.9732 78.9782C84.5877 77.8297 83.7632 76.882 82.6813 76.3434C81.5993 75.8049 80.3485 75.7197 79.2039 76.1065C78.1372 76.5096 77.1042 76.9973 76.1148 77.5651V70.5C76.1249 68.6343 76.7053 66.8166 77.7776 65.2923C78.8499 63.768 80.3625 62.6106 82.1113 61.9762C82.678 61.7847 83.2016 61.483 83.6521 61.0884C84.1027 60.6939 84.4713 60.2141 84.7371 59.6766C85.0029 59.139 85.1605 58.5542 85.201 57.9555C85.2415 57.3569 85.1641 56.756 84.9732 56.1874C84.7823 55.6187 84.4816 55.0934 84.0884 54.6413C83.6951 54.1892 83.217 53.8193 82.6813 53.5527C82.1455 53.286 81.5627 53.1278 80.9661 53.0872C80.3694 53.0465 79.7706 53.1242 79.2039 53.3158C78.1372 53.7188 77.1042 54.2066 76.1148 54.7744V38.5929C76.1148 37.384 76.5934 36.2246 77.4453 35.3698C78.2973 34.515 79.4527 34.0348 80.6576 34.0348C81.8624 34.0348 83.0179 34.515 83.8698 35.3698C84.7217 36.2246 85.2003 37.384 85.2003 38.5929C85.1938 39.3899 84.991 40.1728 84.6098 40.872C84.3075 41.3895 84.1101 41.9618 84.0287 42.5561C83.9473 43.1503 83.9836 43.7548 84.1356 44.335C84.2875 44.9151 84.5521 45.4594 84.9141 45.9368C85.2761 46.4141 85.7284 46.8151 86.2452 47.1167C86.7637 47.418 87.3365 47.6135 87.9306 47.6919C88.5247 47.7702 89.1283 47.7298 89.7068 47.573C90.2853 47.4163 90.8271 47.1462 91.3012 46.7785C91.7752 46.4107 92.172 45.9525 92.4688 45.4302C92.8088 44.6915 93.0972 43.9299 93.3319 43.1511C93.6484 43.1068 93.9695 43.1068 94.2859 43.1511C95.4907 43.1511 96.6462 43.6313 97.4982 44.4861C98.3501 45.3409 98.8287 46.5003 98.8287 47.7092C98.8218 48.6028 98.5532 49.4746 98.0564 50.2162C97.6849 50.8077 97.1689 51.2941 96.5573 51.6292C95.5091 52.2337 94.7432 53.2312 94.4279 54.4023C94.1127 55.5734 94.2741 56.8222 94.8765 57.8739C95.4789 58.9256 96.473 59.6942 97.6402 60.0105C98.8073 60.3268 100.052 60.1649 101.1 59.5604C101.916 59.1178 102.678 58.5825 103.371 57.9651C104.887 58.8112 106.129 60.0747 106.951 61.6063C107.774 63.1379 108.142 64.8736 108.013 66.6086C107.884 68.3435 107.263 70.0052 106.223 71.3975C105.183 72.7897 103.768 73.8543 102.145 74.4656H101.963Z" fill="white"/>
</svg>
